<svg width="40" height="40" viewBox="0 0 40 40" fill="none" xmlns="http://www.w3.org/2000/svg">
<path d="M11.0256 18.2051C12.6145 15.2963 13.7909 13.8983 16.7949 12.4359" stroke="#FFFDFD" stroke-width="1.66667" stroke-linecap="round"/>
<path d="M4.2475 24.423C4.63547 22.4499 6.37471 20.9615 8.46158 20.9615H31.5385C33.6254 20.9615 35.3646 22.4499 35.7526 24.423H4.2475Z" stroke="#FFFDFD" stroke-width="1.66667"/>
<mask id="path-3-inside-1_92_1043" fill="white">
<path d="M32.1793 21.4102C32.1793 19.6424 31.856 17.8919 31.2278 16.2587C30.5996 14.6255 29.6789 13.1415 28.5182 11.8915C27.3574 10.6414 25.9794 9.64987 24.4629 8.97337C22.9463 8.29686 21.3208 7.94867 19.6793 7.94867C18.0378 7.94867 16.4123 8.29686 14.8958 8.97337C13.3792 9.64987 12.0012 10.6414 10.8405 11.8915C9.67975 13.1415 8.75901 14.6255 8.13083 16.2587C7.50264 17.8919 7.17932 19.6424 7.17932 21.4102L19.6793 21.4102H32.1793Z"/>
</mask>
<path d="M32.1793 21.4102C32.1793 19.6424 31.856 17.8919 31.2278 16.2587C30.5996 14.6255 29.6789 13.1415 28.5182 11.8915C27.3574 10.6414 25.9794 9.64987 24.4629 8.97337C22.9463 8.29686 21.3208 7.94867 19.6793 7.94867C18.0378 7.94867 16.4123 8.29686 14.8958 8.97337C13.3792 9.64987 12.0012 10.6414 10.8405 11.8915C9.67975 13.1415 8.75901 14.6255 8.13083 16.2587C7.50264 17.8919 7.17932 19.6424 7.17932 21.4102L19.6793 21.4102H32.1793Z" stroke="#FFFDFD" stroke-width="3.33333" mask="url(#path-3-inside-1_92_1043)"/>
<circle cx="19.9999" cy="7.94874" r="0.833333" fill="#FFFDFD" stroke="#FFFDFD" stroke-width="0.897436"/>
</svg>
